#!OML:ASF F:\VICON\USERDATA\INSTALL\rory3\rory3.ASF
:FULLY-SPECIFIED
:DEGREES
125
root 0.840794 16.4328 -12.3223 19.1989 2.38045 0.978646
lowerback 17.4048 -0.198946 -0.27398
upperback 0.156347 -0.0665372 2.51194
thorax -9.62331 0.0510987 2.9052
lowerneck -23.2453 -5.4638 -9.17462
upperneck 21.8372 -6.54223 8.07405
head 11.5612 -2.69793 3.41216
rclavicle 1.31198e-014 -8.74653e-015
rhumerus -41.4574 6.92599 -81.5802
rradius 66.7701
rwrist -1.71078
rhand -14.9012 16.2158
rfingers 7.12502
rthumb 11.2601 -13.462
lclavicle 1.31198e-014 -8.74653e-015
lhumerus -33.5046 -11.2719 86.6956
lradius 68.1066
lwrist 7.64993
lhand -20.7721 21.5415
lfingers 7.12502
lthumb 5.59434 51.4476
rfemur -34.2086 1.07881 23.9859
rtibia 58.3282
rfoot -24.5027 -13.7929
rtoes -16.3195
lfemur -35.6855 -2.34696 -21.4211
ltibia 56.5226
lfoot -26.6416 0.448087
ltoes -17.7121
126
root 0.829864 16.6072 -12.0838 18.1157 2.56423 0.853053
lowerback 16.8742 -0.195529 -0.23515
upperback 0.0542904 -0.0499706 2.60136
thorax -9.4373 0.0581287 2.96887
lowerneck -22.9522 -5.54772 -9.43485
upperneck 22.4697 -6.66065 8.15668
head 11.7726 -2.76865 3.48098
rclavicle 1.31198e-014 -7.95139e-015
rhumerus -43.6736 7.08048 -81.4599
rradius 67.5743
rwrist -1.40959
rhand -15.2776 16.8394
rfingers 7.12502
rthumb 10.897 -12.8578
lclavicle 1.31198e-014 -7.95139e-015
lhumerus -35.0348 -11.2738 86.8622
lradius 68.5158
lwrist 7.38517
lhand -20.5004 22.9429
lfingers 7.12502
lthumb 5.85675 52.8419
rfemur -30.7472 0.710684 24.1091
rtibia 55.4731
rfoot -23.0396 -12.6343
rtoes -16.477
lfemur -32.3252 -2.29593 -21.1865
ltibia 53.9078
lfoot -24.9317 -0.332375
ltoes -18.8046
127
root 0.819694 16.7897 -11.8355 17.1042 2.55743 0.758705
lowerback 16.0658 -0.132371 -0.24483
upperback -0.00977637 0.0240568 2.61572
thorax -9.05458 0.0903597 2.95927
lowerneck -22.4105 -5.62915 -9.62929
upperneck 22.8412 -6.81613 8.26785
head 11.8403 -2.85366 3.54107
rclavicle -7.95139e-015 -7.95139e-016
rhumerus -45.5894 7.26057 -81.386
rradius 68.2107
rwrist -1.18047
rhand -15.3257 16.8895
rfingers 7.12502
rthumb 10.8506 -12.8102
lclavicle -7.95139e-015 -7.95139e-016
lhumerus -36.6628 -11.1842 86.8661
lradius 69.0504
lwrist 7.14778
lhand -20.6398 22.9579
lfingers 7.12502
lthumb 5.72209 52.8606
rfemur -27.3539 0.468192 24.0935
rtibia 52.5937
rfoot -21.3638 -11.1731
rtoes -16.0372
lfemur -29.0633 -2.09321 -21.032
ltibia 51.2621
lfoot -22.9324 -1.35276
ltoes -19.8715
128
root 0.814903 16.9836 -11.5789 16.277 2.68895 0.762912
lowerback 14.889 -0.147537 -0.266362
upperback -0.108185 -0.010915 2.63538
thorax -8.49403 0.0694554 2.98306
lowerneck -21.3636 -5.4853 -9.631
upperneck 22.7377 -6.66303 8.11623
head 11.5763 -2.82991 3.51926
rclavicle -9.14409e-015 -3.97569e-015
rhumerus -47.4024 7.57403 -81.3875
rradius 68.5797
rwrist -0.946743
rhand -15.3078 16.8623
rfingers 7.12502
rthumb 10.8679 -12.8365
lclavicle -9.14409e-015 -3.97569e-015
lhumerus -38.3113 -10.8402 86.8765
lradius 69.4791
lwrist 6.88728
lhand -20.674 21.9279
lfingers 7.12502
lthumb 5.68906 51.8315
rfemur -24.1936 0.0791768 23.9767
rtibia 49.6887
rfoot -19.0168 -9.69973
rtoes -15.5774
lfemur -26.0705 -2.02683 -20.9372
ltibia 48.5543
lfoot -20.5997 -2.53606
ltoes -20.9988
129
root 0.811517 17.1906 -11.31 15.5645 2.95913 0.714459
lowerback 13.466 -0.242387 -0.17036
upperback -0.221727 -0.134917 2.66192
thorax -7.80445 -0.00052728 2.96099
lowerneck -20.071 -5.09725 -9.42159
upperneck 22.3783 -6.19741 7.80403
head 11.124 -2.67086 3.45202
rclavicle 1.35174e-014 -2.70347e-014
rhumerus -49.2285 8.01149 -81.5179
rradius 68.9204
rwrist -0.977459
rhand -15.3533 17.0752
rfingers 7.12502
rthumb 10.824 -12.6259
lclavicle 1.35174e-014 -2.70347e-014
lhumerus -39.9293 -10.5959 86.8355
lradius 69.8282
lwrist 6.72793
lhand -20.368 22.85
lfingers 7.12502
lthumb 5.98449 52.7455
rfemur -21.183 -0.30916 23.9197
rtibia 46.7598
rfoot -16.0838 -8.22737
rtoes -15.4731
lfemur -23.1554 -2.03152 -20.7399
ltibia 45.7731
lfoot -17.8187 -3.78149
ltoes -22.3361
130
root 0.808237 17.4125 -11.0344 14.8666 2.84958 0.552226
lowerback 11.9128 -0.21938 -0.128497
upperback -0.211545 -0.11678 2.71089
thorax -6.91529 -0.00148609 2.96034
lowerneck -19.1937 -4.85511 -9.33591
upperneck 22.3313 -5.90273 7.58336
head 10.8979 -2.57632 3.41149
rclavicle 1.19271e-014 6.36111e-015
rhumerus -50.8154 8.57939 -81.6323
rradius 69.364
rwrist -1.09962
rhand -15.2368 17.2737
rfingers 7.12502
rthumb 10.9364 -12.4215
lclavicle 1.19271e-014 6.36111e-015
lhumerus -41.3503 -10.3174 86.7143
lradius 70.1697
lwrist 6.69093
lhand -20.1973 24.4595
lfingers 7.12502
lthumb 6.14934 54.3503
rfemur -18.3409 -0.238043 23.8479
rtibia 43.8177
rfoot -12.6773 -6.73639
rtoes -16.2752
lfemur -20.1902 -1.68181 -20.5064
ltibia 42.9071
lfoot -14.2221 -5.16918
ltoes -22.9548
131
root 0.802492 17.6602 -10.7524 14.1607 2.67344 0.435923
lowerback 10.5505 -0.217676 -0.233011
upperback -0.353978 -0.137348 2.8187
thorax -6.29461 -0.0113861 3.11873
lowerneck -18.4245 -4.751 -9.50751
upperneck 22.7348 -5.75632 7.42249
head 10.8855 -2.56157 3.41914
rclavicle -1.19271e-015 6.36111e-015
rhumerus -52.7088 9.47708 -81.781
rradius 69.9751
rwrist -1.20698
rhand -14.91 17.2868
rfingers 7.12502
rthumb 11.2516 -12.3914
lclavicle -1.19271e-015 6.36111e-015
lhumerus -43.2183 -9.68114 86.6223
lradius 70.8092
lwrist 6.92183
lhand -19.979 24.3357
lfingers 7.12502
lthumb 6.36007 54.2202
rfemur -15.6268 0.101523 23.6981
rtibia 40.8562
rfoot -8.62574 -5.44938
rtoes -16.5902
lfemur -17.3159 -1.32526 -20.3179
ltibia 39.9799
lfoot -9.89891 -6.47594
ltoes -23.1639
132
root 0.794245 17.9219 -10.4591 13.3504 2.77174 0.562502
lowerback 9.24135 -0.273476 -0.477225
upperback -0.607627 -0.251854 2.80952
thorax -5.81408 -0.0633929 3.2483
lowerneck -17.1288 -4.65664 -9.51583
upperneck 23.0711 -5.71055 7.22432
head 10.7492 -2.59334 3.37436
rclavicle -9.14409e-015 1.74931e-014
rhumerus -54.9759 10.1853 -82.0672
rradius 70.6488
rwrist -1.1631
rhand -14.0608 17.2169
rfingers 7.12502
rthumb 12.0705 -12.415
lclavicle -9.14409e-015 1.74931e-014
lhumerus -45.5172 -9.21902 86.4621
lradius 71.6616
lwrist 7.34652
lhand -20.0608 20.7247
lfingers 7.12502
lthumb 6.28112 50.6116
rfemur -12.7993 0.358063 23.3306
rtibia 37.8804
rfoot -4.00465 -4.26777
rtoes -14.7823
lfemur -14.4884 -1.20937 -20.3122
ltibia 37.0656
lfoot -4.86358 -7.71245
ltoes -23.1275
133
root 0.789216 18.1789 -10.169 12.5926 2.74033 0.551804
lowerback 7.66952 -0.289577 -0.541355
upperback -0.635898 -0.297313 2.78119
thorax -4.95128 -0.0940042 3.23703
lowerneck -16.1122 -4.57201 -9.57037
upperneck 23.3362 -5.67546 7.17819
head 10.6468 -2.60979 3.38796
rclavicle 1.59028e-014 -1.43125e-014
rhumerus -56.8097 10.8602 -82.3333
rradius 71.4171
rwrist -1.1002
rhand -12.7237 16.9007
rfingers 7.12502
rthumb 13.3595 -12.6511
lclavicle 1.59028e-014 -1.43125e-014
lhumerus -47.3629 -8.97395 86.2061
lradius 72.4785
lwrist 8.21992
lhand -20.9189 25.7224
lfingers 7.12502
lthumb 5.45267 55.6322
rfemur -10.1274 0.868153 23.0707
rtibia 34.8903
rfoot 1.40164 -3.30053
rtoes -13.4665
lfemur -11.9025 -1.16398 -20.1927
ltibia 34.276
lfoot 1.05054 -8.33408
ltoes -22.7643
134
root 0.784848 18.4392 -9.88968 11.8802 2.65071 0.363396
lowerback 6.21813 -0.384369 -0.411247
upperback -0.417908 -0.430636 2.83853
thorax -3.89756 -0.175672 3.21295
lowerneck -16.075 -4.40661 -9.55829
upperneck 23.7583 -5.43557 7.04191
head 10.7666 -2.5184 3.37974
rclavicle 9.93923e-016 -3.02153e-014
rhumerus -57.8302 11.8754 -82.5709
rradius 72.1272
rwrist -0.958593
rhand -11.8453 16.5143
rfingers 7.12502
rthumb 14.2061 -12.9799
lclavicle 9.93923e-016 -3.02153e-014
lhumerus -48.7173 -8.43198 85.8123
lradius 73.4248
lwrist 9.37824
lhand -20.8313 26.9185
lfingers 7.12502
lthumb 5.53728 56.8262
rfemur -7.71427 1.62562 23.0233
rtibia 31.9345
rfoot 7.22022 -2.85102
rtoes -13.0824
lfemur -9.70432 -1.37442 -19.921
ltibia 31.7721
lfoot 7.4944 -8.01553
ltoes -22.0843
135
root 0.778905 18.7129 -9.62049 11.1797 2.68146 0.283479
lowerback 5.12802 -0.534241 -0.398309
upperback -0.356231 -0.642508 2.88385
thorax -3.20716 -0.288575 3.25298
lowerneck -15.8228 -4.21484 -9.32642
upperneck 24.2281 -5.18858 6.71276
head 10.8502 -2.43136 3.26741
rclavicle -2.18663e-015 -2.38542e-015
rhumerus -59.0765 13.0058 -82.8832
rradius 72.9315
rwrist -0.659631
rhand -11.1916 16.5713
rfingers 7.12502
rthumb 14.8359 -12.8775
lclavicle -2.18663e-015 -2.38542e-015
lhumerus -50.3656 -7.77571 85.2822
lradius 74.4669
lwrist 9.94656
lhand -20.7472 24.9138
lfingers 7.12502
lthumb 5.61838 54.8193
rfemur -5.53371 2.42116 22.9101
rtibia 29.2149
rfoot 13.0006 -3.15241
rtoes -11.0483
lfemur -7.92854 -2.14129 -19.8192
ltibia 29.6964
lfoot 13.7336 -6.93751
ltoes -20.1289
